<?xml version="1.0" ?><!DOCTYPE svg  PUBLIC '-//W3C//DTD SVG 1.1//EN'  'http://www.w3.org/Graphics/SVG/1.1/DTD/svg11.dtd'><svg style="width:27px;height:27px" enable-background="new 0 0 139 139" height="139px" id="Layer_2" version="1.1" viewBox="0 0 139 139" width="139px" xml:space="preserve" xmlns="http://www.w3.org/2000/svg" xmlns:xlink="http://www.w3.org/1999/xlink"><g><path d="M127,98.262c0,4.273-3.464,7.738-7.737,7.738H20.737C16.464,106,13,102.535,13,98.262V41.738   C13,37.464,16.464,34,20.737,34h98.525c4.273,0,7.737,3.464,7.737,7.738V98.262z M121,41.009c0-0.558-0.451-1.009-1.009-1.009   H21.009C20.452,40,20,40.452,20,41.009V97.99c0,0.558,0.452,1.01,1.009,1.01h98.982c0.558,0,1.009-0.452,1.009-1.01V41.009z"/></g><g><path d="M113,92H37v-2.783C37,85.441,33.512,82,29.737,82H26V47h77v3.53c0,3.775,3.027,6.47,6.802,6.47H113V92z M42.891,86H107   V63.684C102,62.458,97.873,59,96.649,54H33v22.063C38,77.288,41.665,81,42.891,86z"/></g><g><path d="M69.77,82.884c-7.174,0-13.011-5.836-13.011-13.01s5.836-13.011,13.011-13.011c7.175,0,13.011,5.836,13.011,13.011   S76.944,82.884,69.77,82.884z M69.77,63.591c-3.465,0-6.282,2.818-6.282,6.283s2.817,6.283,6.282,6.283s6.283-2.818,6.283-6.283   S73.234,63.591,69.77,63.591z"/></g></svg>