<svg height="512" viewBox="0 0 60 61" width="512" xmlns="http://www.w3.org/2000/svg"><g id="022---Male-User-Account-Locked" transform="translate(-1)"><path id="Shape" d="m31 0c-11.3261523-.01198212-21.69356831 6.35580944-26.80414148 16.4634259-5.11057316 10.1076165-4.09301396 22.2318343 2.63081954 31.3462148 6.72383354 9.1143805 18.00761094 13.6650345 29.17332194 11.7653593 1.343.59.651.425 20 .425 2.7600532-.0033061 4.9966939-2.2399468 5-5v-16c-.0044198-.8921686-.2504691-1.7664729-.712-2.53 1.9504798-8.8765131-.224439-18.158797-5.9151027-25.2449245-5.6906636-7.08612746-14.2846235-11.21346554-23.3728973-11.2250755zm-28 30c.01214256-10.5660357 5.97113664-20.2254443 15.4085415-24.97693333 9.4374048-4.75148903 20.7458627-3.78579554 29.2409827 2.4970537 8.49512 6.28284923 12.7300322 16.81277343 10.9504758 27.22787963-.7804788-.4857379-1.6807189-.74473-2.6-.748v-3c-.007607-4.7263462-3.6679356-8.642544-8.383-8.969.251616-1.0586659.380134-2.1428475.383-3.231 0-8.349-6.039-9.525-7.3-9.678-.987-1.364-4.31-5.122-10.99-5.122-7.836 0-14.71 6.5-14.71 13.9.025531 2.1802479.382271 4.3439532 1.058 6.417-1.663 1.176-1.138 4.706-.909 5.875.239023 2.3136562 1.636758 4.3475471 3.711 5.4.122 2.762 1.211 4.333 3.14 6.161v5.817c-1.2440524 1.184785-2.5555748 2.2966408-3.928 3.33-.2783102.1972128-.4369011.5226836-.4207055.8633993.0161956.3407156.2049438.6496759.5007055.8196007 4.5287322 2.5943944 9.7387542 3.7518284 14.94 3.319.1266198.692217.399347 1.3494897.8 1.928-7.8834355.8186266-15.7444968-1.7421604-21.6331374-7.0471218-5.88864066-5.3049615-9.2531312-12.8570551-9.2588626-20.7828782zm49 4v-3c0-2.7614237-2.2385763-5-5-5s-5 2.2385763-5 5v3h-2v-3c0-3.8659932 3.1340068-7 7-7s7 3.1340068 7 7v3zm-8 0v-3c0-1.6568542 1.3431458-3 3-3s3 1.3431458 3 3v3zm-11 5v6.979c-.1.008-.193.021-.3.021-4.743 0-4.7.418-6.6-2.375-3.682-5.4-5.493-4.091-5.208-10.021.1236116-1.3014655.0677556-2.6137455-.166-3.9-.2376149-1.9799335-.3498387-3.9729072-.336-5.967.025-.528.1-2.138 3.121-2.138h5.307c.28-.024 6.453-.616 9.856-4.878.754.943 1.953 3.082 2.48 7.452-1.9996971 1.7044894-3.1523374 4.1994403-3.154 6.827v3c-2.7600532.0033061-4.9966939 2.2399468-5 5zm-12.509 12.567c1.56-1.273 3.119-2.766 3.2-2.846.196897-.1882192.3084943-.448613.309-.721v-3.894c1.474 2.094 2.413 3.894 5.3 3.894 1.2324374.0754235 2.4685467.0680737 3.7-.022v5.929c-4.3048508.3715236-8.6295445-.4374766-12.509-2.34zm25.03-29.435c-.8744377.145413-1.7223827.4200851-2.516.815-1.037-6.8-3.685-8.449-4-8.624-.4681333-.256774-1.055412-.1004891-1.334.355-2.635 4.3-8.962 4.92-8.937 4.922h-5.224c-3.088 0-5 1.512-5.118 4.037-.008.149-.013.318-.014.5-.0986137-.0313414-.19874-.0577079-.3-.079-.6849509-1.982168-1.0488693-4.0610262-1.078-6.158 0-6.228 6.058-11.9 12.71-11.9 6.789 0 9.465 4.416 9.574 4.6.1786283.3093932.5087435.4999909.866.5h.269c.228.014 5.581.4 5.581 7.7-.0043532 1.1275073-.1655655 2.2489255-.479 3.332zm-28.351 3.847c.047667.0071782.0957958.0108547.144.011.957 0 1.129.425 1.154.647.057.5.049.969.266 3.255.2073896 1.114376.2632282 2.2516679.166 3.381-.9880527-.8301134-1.6189467-2.0084743-1.762-3.291-.0031394-.0432954-.0088158-.0863694-.017-.129-.365-1.817-.26-3.668.049-3.874zm41.83 29.021c0 1.6568542-1.3431458 3-3 3h-18c-1.6568542 0-3-1.3431458-3-3v-16c0-1.6568542 1.3431458-3 3-3h18c1.6568542 0 3 1.3431458 3 3z"/><path id="Shape" d="m47 40c-1.6210931.0069679-3.0781917.9902604-3.6912632 2.4909719-.6130715 1.5007114-.261252 3.2229841.8912632 4.3630281l-.925 2.965c-.3929302.9265221-.2963037 1.9881846.2574383 2.8285459s1.4911734 1.3479896 2.4975617 1.3524541h1.94c.9975591-.0031512 1.9286649-.5006543 2.4857527-1.328173.5570878-.8275188.6676806-1.8773933.2952473-2.802827l-.945-3.016c1.1525589-1.1409116 1.5035358-2.864167.8890192-4.3649804-.6145166-1.5008133-2.0732773-2.4830613-3.6950192-2.4880196zm.7 6.809c1.144 3.653 1.164 3.722 1.194 3.792.1318839.3098238.1000138.6650852-.0849085.9464887s-.4983711.4516274-.8350915.4535113h-1.944c-.3545749-.0030702-.6817888-.1911353-.8629285-.495965-.1811396-.3048298-.1898881-.6821373-.0230715-.995035l1.16-3.7c.1327125-.4239981-.0302289-.8847149-.4-1.131-.7401764-.484278-1.0743335-1.3972449-.8216667-2.2449157.2526667-.8476708 1.0321407-1.4286957 1.9166667-1.4286957s1.664.5810249 1.9166667 1.4286957c.2526668.8476708-.0814903 1.7606377-.8216667 2.2449157-.367094.2478435-.5274136.7076433-.394 1.13z"/></g></svg>