<?xml version="1.0"?>
<svg xmlns="http://www.w3.org/2000/svg" id="Layer_1" data-name="Layer 1" viewBox="0 0 512 512" width="512" height="512"><title> Clock Delivery package </title><polygon points="272.19 68.686 208 31.625 28.013 135.541 92.203 172.601 272.19 68.686"/><polygon points="333.132 103.871 153.145 207.786 208 239.457 387.987 135.541 333.132 103.871"/><path d="M147,358.48a6.091,6.091,0,0,1-3.981,5.613,6.26,6.26,0,0,1-2.168.387,6.053,6.053,0,0,1-4.53-2.036l-22.533-25.583L94.5,344.825a6.207,6.207,0,0,1-5.731-.558A6.1,6.1,0,0,1,86,339.28V182.994L22,145.926V372.987L202,476.91V249.849l-55-31.87ZM47,371.367a6,6,0,0,1-12,0V345.446a6,6,0,0,1,12,0ZM75,388a6,6,0,0,1-12,0V364.646a6,6,0,0,1,12,0Zm29,16.41a6,6,0,0,1-12,0v-20.56a6,6,0,0,1,12,0Zm28,16.411a6,6,0,0,1-12,0V403.046a6,6,0,0,1,12,0Zm17,1.429a6,6,0,0,1,12,0v15.359a6,6,0,0,1-12,0Z"/><path d="M98,330.31l15.055-6.176A6.232,6.232,0,0,1,120,325.715l15,16.868V211.051L98,189.922Z"/><path d="M394,274.4V145.926L214,249.849V476.91l94.92-54.8A101.968,101.968,0,0,1,394,274.4Zm-154.429,9.632,16.9-31.443a6,6,0,0,1,9.648-1.277l17.9,18.963a6,6,0,0,1-.245,8.482,5.856,5.856,0,0,1-8.361-.245L268,270.532v72.885a6,6,0,0,1-12,0v-64.15l-5.739,10.453a6.105,6.105,0,0,1-8.216,2.443A6.011,6.011,0,0,1,239.571,284.037Zm43.09,80.689-31.887,18.409a6,6,0,0,1-6-10.393l31.887-18.409a6,6,0,0,1,6,10.393Z"/><path d="M400,286.224a90,90,0,1,0,90,90A90.1,90.1,0,0,0,400,286.224Zm36.422,124.1a6,6,0,0,1-8.481.279l-32.042-30a6,6,0,0,1-1.9-4.38V313.971a6,6,0,0,1,12,0v59.652l30.143,28.221A6,6,0,0,1,436.422,410.325Z"/><polygon points="141.145 200.858 321.131 96.942 284.19 75.614 104.203 179.529 141.145 200.858"/></svg>
