<svg height="486pt" viewBox="-11 0 486 486.4" width="486pt" xmlns="http://www.w3.org/2000/svg"><path d="m464.199219 228c0-125.601562-102.398438-228-228-228-125.597657 0-228 102.398438-228 228 0 7.199219 0 13.601562.800781 20.800781l16-1.601562c-.800781-6.398438-.800781-12.800781-.800781-19.199219 0-116.800781 95.199219-212 212-212s212 95.199219 212 212c0 114.398438-90.398438 208-204 212l17.601562-17.601562-11.199219-11.199219-37.601562 37.601562 37.601562 37.597657 11.199219-11.199219-19.199219-19.199219c123.199219-4 221.597657-104.800781 221.597657-228zm0 0"/><path d="m368.199219 112h-256v112h256zm-208 96h-32v-32h16v16h16zm0-64h-16v16h-16v-32h32zm32 32h-24v-16h24zm48 24c-17.597657 0-32-14.398438-32-32s14.402343-32 32-32c17.601562 0 32 14.398438 32 32s-14.398438 32-32 32zm72-24h-24v-16h24zm40 32h-32v-16h16v-16h16zm0-48h-16v-16h-16v-16h32zm0 0"/><path d="m256.199219 168c0 8.835938-7.164063 16-16 16-8.835938 0-16-7.164062-16-16s7.164062-16 16-16c8.835937 0 16 7.164062 16 16zm0 0"/><path d="m368.199219 327.199219c0-7.199219-6.398438-13.597657-13.597657-13.597657-1.601562 0-2.402343 0-4 .796876l-96.800781 28c-3.199219.800781-7.199219 1.601562-10.402343.800781l-92.796876-15.199219 1.597657-8v-8h56c8.800781 0 16-7.199219 16-16s-7.199219-16-16-16h-100c-1.597657 0-2.398438 0-4 .800781l-24 13.597657v68l85.601562 36c1.597657.800781 4 .800781 5.597657 0l187.203124-58.398438c5.597657-1.601562 9.597657-6.398438 9.597657-12.800781zm0 0"/><path d="m48.199219 328h-16v-48h-32v104h64v-104h-16zm0 40h-16v-24h16zm0 0"/></svg>